<?xml version="1.0" standalone="no"?>
<!DOCTYPE svg PUBLIC "-//W3C//DTD SVG 20010904//EN"
 "http://www.w3.org/TR/2001/REC-SVG-20010904/DTD/svg10.dtd">
<svg version="1.0" xmlns="http://www.w3.org/2000/svg"
 width="112.000000pt" height="111.000000pt" viewBox="0 0 112.000000 111.000000"
 preserveAspectRatio="xMidYMid meet">
<metadata>
Created by potrace 1.16, written by Peter Selinger 2001-2019
</metadata>
<g transform="translate(0.000000,111.000000) scale(0.100000,-0.100000)"
fill="#fff" stroke="none">
<path d="M373 657 c-96 -96 -133 -139 -133 -157 0 -28 241 -277 278 -287 25
-6 52 12 52 36 0 8 -44 60 -97 113 l-98 98 267 0 c146 0 273 3 282 6 9 4 16
18 16 34 0 16 -7 30 -16 34 -9 3 -136 6 -282 6 l-267 0 98 98 c96 96 108 117
85 140 -27 27 -54 10 -185 -121z"/>
</g>
</svg>
