<?xml version="1.0" standalone="no"?>
<!DOCTYPE svg PUBLIC "-//W3C//DTD SVG 20010904//EN"
 "http://www.w3.org/TR/2001/REC-SVG-20010904/DTD/svg10.dtd">
<svg version="1.0" xmlns="http://www.w3.org/2000/svg"
 width="110.000000pt" height="120.000000pt" viewBox="0 0 90.000000 91.000000"
 preserveAspectRatio="xMidYMid meet">

<g transform="translate(0.000000,91.000000) scale(0.100000,-0.100000)"
fill="#fff" stroke="none">
<path d="M160 837 c-48 -24 -50 -39 -50 -404 0 -188 3 -348 6 -357 3 -9 13
-16 20 -16 8 0 79 47 158 105 79 58 149 105 156 105 7 0 77 -47 156 -105 79
-58 150 -105 159 -105 8 0 17 10 20 23 3 12 5 178 3 369 -3 346 -3 348 -26
370 -22 23 -26 23 -300 26 -210 2 -283 -1 -302 -11z m565 -60 c3 -7 4 -151 3
-320 l-3 -307 -130 95 c-71 52 -137 95 -145 95 -8 0 -73 -43 -145 -95 l-130
-95 -3 307 c-1 169 0 313 3 320 7 19 543 19 550 0z"/>
</g>
</svg>
