<?xml version="1.0" standalone="no"?>
<!DOCTYPE svg PUBLIC "-//W3C//DTD SVG 20010904//EN"
 "http://www.w3.org/TR/2001/REC-SVG-20010904/DTD/svg10.dtd">
<svg version="1.0" xmlns="http://www.w3.org/2000/svg"
 width="135.000000pt" height="139.000000pt" viewBox="-20 -20 216.000000 209.000000"
 preserveAspectRatio="xMidYMid meet">
<metadata>
Created by potrace 1.16, written by Peter Selinger 2001-2019
</metadata>
<g transform="translate(0.000000,139.000000) scale(0.100000,-0.100000)"
fill="#fff" stroke="none">
<path d="M560 1269 c-75 -14 -186 -76 -246 -135 -235 -235 -170 -642 126 -787
166 -82 342 -72 489 27 l49 33 103 -103 c108 -108 138 -124 159 -83 10 18 2
30 -72 106 -124 130 -128 134 -128 138 0 2 14 26 30 52 44 69 71 149 77 228
24 327 -266 586 -587 524z m182 -80 c77 -17 144 -54 204 -113 239 -240 111
-636 -225 -698 -161 -30 -345 64 -420 214 -64 127 -66 253 -6 375 84 169 266
260 447 222z"/>
</g>
</svg>
