<?xml version="1.0" standalone="no"?>
<!DOCTYPE svg PUBLIC "-//W3C//DTD SVG 20010904//EN"
 "http://www.w3.org/TR/2001/REC-SVG-20010904/DTD/svg10.dtd">
<svg version="1.0" xmlns="http://www.w3.org/2000/svg"
 width="154.000000pt" height="146.000000pt" viewBox="0 0 154.000000 146.000000"
 preserveAspectRatio="xMidYMid meet">
<metadata>
Created by potrace 1.16, written by Peter Selinger 2001-2019
</metadata>
<g transform="translate(0.000000,146.000000) scale(0.100000,-0.100000)"
fill="#fff" stroke="currentColor">
<path d="M511 1147 c-156 -85 -287 -161 -292 -169 -23 -41 22 -68 71 -43 16 8
30 12 30 8 0 -5 20 -152 45 -328 29 -202 51 -328 61 -343 8 -12 29 -32 47 -42
30 -19 52 -20 327 -20 268 0 298 2 330 19 63 33 66 42 115 386 25 176 45 323
45 328 0 4 14 0 30 -8 49 -25 94 2 71 43 -9 15 -566 322 -586 322 -5 0 -138
-69 -294 -153z m502 -47 l203 -110 -47 -331 c-36 -252 -51 -335 -65 -350 -16
-18 -33 -19 -299 -19 -209 0 -285 3 -298 13 -13 9 -27 83 -65 349 l-48 338
200 109 c111 61 204 110 209 110 4 1 99 -49 210 -109z"/>
<path d="M709 922 c-43 -22 -59 -38 -81 -81 -37 -70 -37 -122 0 -192 22 -43
38 -59 81 -81 70 -37 122 -37 192 0 43 22 59 38 81 81 37 70 37 122 0 192 -22
43 -38 59 -81 81 -70 37 -122 37 -192 0z m152 -67 c37 -20 69 -70 69 -110 0
-62 -63 -125 -125 -125 -61 0 -125 63 -125 123 0 63 62 127 123 127 15 0 41
-7 58 -15z"/>
</g>
</svg>
