<?xml version="1.0" standalone="no"?>
<!DOCTYPE svg PUBLIC "-//W3C//DTD SVG 20010904//EN"
 "http://www.w3.org/TR/2001/REC-SVG-20010904/DTD/svg10.dtd">
<svg version="1.0" xmlns="http://www.w3.org/2000/svg"
 width="100.000000pt" height="120.000000pt" viewBox="0 0 97.000000 91.000000"
 preserveAspectRatio="xMidYMid meet">

<g transform="translate(0.000000,91.000000) scale(0.100000,-0.100000)"
fill="#fff" stroke="none">
<path d="M136 804 l-26 -27 0 -337 0 -337 26 -27 27 -26 337 0 337 0 27 26 26
27 0 337 0 337 -26 27 -27 26 -337 0 -337 0 -27 -26z m689 -364 l0 -325 -325
0 -325 0 -3 315 c-1 173 0 321 3 328 3 10 73 12 327 10 l323 -3 0 -325z"/>
<path d="M284 615 c-4 -8 -4 -22 0 -30 5 -13 35 -15 218 -13 l213 3 0 25 0 25
-213 3 c-183 2 -213 0 -218 -13z"/>
<path d="M284 455 c-4 -8 -4 -22 0 -30 5 -13 35 -15 218 -13 l213 3 0 25 0 25
-213 3 c-183 2 -213 0 -218 -13z"/>
<path d="M284 295 c-15 -39 1 -45 120 -45 96 0 115 3 120 16 14 35 -12 44
-126 44 -87 0 -110 -3 -114 -15z"/>
</g>
</svg>
