<?xml version="1.0" standalone="no"?>
<!DOCTYPE svg PUBLIC "-//W3C//DTD SVG 20010904//EN"
 "http://www.w3.org/TR/2001/REC-SVG-20010904/DTD/svg10.dtd">
<svg version="1.0" xmlns="http://www.w3.org/2000/svg"
 width="160.000000pt" height="160.000000pt" viewBox="-25 -20 220.000000 199.000000"
 preserveAspectRatio="xMidYMid meet">
<metadata>
Created by potrace 1.16, written by Peter Selinger 2001-2019
</metadata>
<g transform="translate(0.000000,129.000000) scale(0.100000,-0.100000)"
fill="#fff" stroke="none">
<path d="M299 1097 c-68 -45 -69 -49 -69 -468 0 -374 0 -376 22 -409 13 -18
36 -43 51 -54 28 -21 38 -21 472 -21 434 0 444 0 472 21 15 11 38 36 51 54 22
33 22 35 22 409 0 419 -1 423 -69 468 l-34 23 -442 0 -442 0 -34 -23z m921
-77 c12 -12 20 -33 20 -52 0 -32 -9 -39 -223 -180 -122 -82 -231 -148 -242
-148 -11 0 -120 66 -242 148 -214 141 -223 148 -223 180 0 19 8 40 20 52 19
19 33 20 445 20 412 0 426 -1 445 -20z m-445 -460 c40 0 64 13 254 140 l211
140 0 -284 c0 -265 -1 -285 -19 -307 l-19 -24 -427 0 -427 0 -19 24 c-18 22
-19 42 -19 307 l0 284 211 -140 c190 -127 214 -140 254 -140z"/>
</g>
</svg>
