<?xml version="1.0" standalone="no"?>
<!DOCTYPE svg PUBLIC "-//W3C//DTD SVG 20010904//EN"
 "http://www.w3.org/TR/2001/REC-SVG-20010904/DTD/svg10.dtd">
<svg version="1.0" xmlns="http://www.w3.org/2000/svg"
 width="70.000000pt" height="71.000000pt" viewBox="-10 -10 203.000000 181.000000"
 preserveAspectRatio="xMidYMid meet">
<metadata>
Created by potrace 1.16, written by Peter Selinger 2001-2019
</metadata>
<g transform="translate(0.000000,131.000000) scale(0.100000,-0.100000)"
fill="#fff" stroke="none">
<path d="M662 1240 c-168 -44 -307 -158 -380 -310 -51 -106 -67 -185 -59 -298
13 -207 131 -389 315 -485 222 -117 492 -76 671 101 112 110 169 233 178 382
24 399 -345 709 -725 610z m234 -71 c169 -31 327 -168 384 -335 62 -179 17
-382 -114 -516 -158 -161 -379 -200 -584 -102 -300 144 -376 563 -144 798 132
135 286 187 458 155z"/>
<path d="M475 725 c-51 -50 -15 -135 58 -135 44 0 77 34 77 81 0 72 -84 106
-135 54z"/>
<path d="M759 737 c-44 -34 -47 -89 -7 -127 61 -56 166 19 127 92 -18 33 -40
47 -74 47 -16 0 -37 -5 -46 -12z"/>
<path d="M1026 729 c-20 -16 -26 -29 -26 -59 0 -72 84 -106 135 -55 73 72 -28
178 -109 114z"/>
</g>
</svg>
