<?xml version="1.0" standalone="no"?>
<!DOCTYPE svg PUBLIC "-//W3C//DTD SVG 20010904//EN"
 "http://www.w3.org/TR/2001/REC-SVG-20010904/DTD/svg10.dtd">
<svg version="1.0" xmlns="http://www.w3.org/2000/svg"
 width="80.000000pt" height="90.000000pt" viewBox="-10 0 200.000000 160.000000"
 preserveAspectRatio="xMidYMid meet">
<metadata>
Created by potrace 1.16, written by Peter Selinger 2001-2019
</metadata>
<g transform="translate(0.000000,171.000000) scale(0.100000,-0.100000)"
fill="#fff" stroke="none">
<path d="M703 1396 c-179 -58 -292 -233 -293 -452 0 -123 -43 -254 -101 -310
-16 -15 -29 -35 -29 -44 0 -35 21 -40 166 -40 l141 0 6 -38 c10 -57 59 -126
114 -159 40 -23 59 -28 118 -28 59 0 78 5 118 28 55 33 102 99 112 158 l7 39
142 0 c145 0 166 5 166 40 0 9 -12 27 -26 41 -59 55 -104 186 -104 304 -1 207
-93 371 -248 443 -47 21 -74 27 -152 29 -61 2 -110 -2 -137 -11z m226 -81
c148 -52 215 -163 231 -384 10 -138 20 -182 56 -253 l24 -48 -415 0 -415 0 26
51 c31 63 54 163 54 245 1 244 130 402 331 403 37 1 85 -6 108 -14z m47 -792
c-9 -35 -34 -71 -70 -97 -38 -28 -125 -28 -163 0 -35 26 -60 62 -69 97 l-6 27
157 0 157 0 -6 -27z"/>
</g>
</svg>
