<?xml version="1.0" standalone="no"?>
<!DOCTYPE svg PUBLIC "-//W3C//DTD SVG 20010904//EN"
 "http://www.w3.org/TR/2001/REC-SVG-20010904/DTD/svg10.dtd">
<svg version="1.0" xmlns="http://www.w3.org/2000/svg"
 width="102.000000pt" height="120.000000pt" viewBox="-25 -10 152.000000 170.000000"
 preserveAspectRatio="xMidYMid meet">

<g transform="translate(0.000000,120.000000) scale(0.100000,-0.100000)"
fill="#fff" stroke="none">
<path d="M438 1128 c-50 -13 -114 -70 -146 -132 -24 -47 -27 -61 -27 -166 0
-104 2 -119 24 -154 38 -61 102 -86 226 -86 124 0 188 25 226 86 22 35 24 50
24 154 0 105 -3 119 -27 166 -61 116 -174 166 -300 132z m152 -90 c66 -34 93
-88 97 -198 4 -99 -6 -127 -57 -152 -48 -25 -182 -25 -230 0 -51 25 -61 53
-57 152 4 110 31 164 97 198 24 12 58 22 75 22 17 0 51 -10 75 -22z"/>
<path d="M440 500 c-161 -25 -285 -114 -350 -253 -46 -95 -35 -168 30 -202 43
-22 747 -22 790 0 36 19 60 62 60 108 0 85 -116 244 -216 295 -89 45 -217 66
-314 52z m218 -100 c104 -37 195 -127 223 -221 22 -71 32 -69 -366 -69 -397 0
-388 -2 -367 68 58 193 297 297 510 222z"/>
</g>
</svg>
